<svg width="24" height="24" viewBox="0 0 24 24" fill="none" xmlns="http://www.w3.org/2000/svg">
<path fill-rule="evenodd" clip-rule="evenodd" d="M15.0579 8.04413C12.8732 6.35526 9.73296 6.75726 8.04409 8.94202C6.35522 11.1268 6.75722 14.267 8.94198 15.9558C11.1267 17.6447 14.2669 17.2427 15.9558 15.058C16.4117 14.4682 16.7147 13.81 16.872 13.13C16.9342 12.8609 17.2027 12.6933 17.4717 12.7555C17.7408 12.8177 17.9085 13.0862 17.8463 13.3553C17.6572 14.1729 17.2928 14.9634 16.747 15.6695C14.7203 18.2913 10.9521 18.7737 8.33039 16.747C5.70867 14.7204 5.22627 10.9521 7.25292 8.33043C9.27956 5.70871 13.0478 5.22631 15.6695 7.25295L15.0579 8.04413Z" fill="white"/>
<path d="M14.1612 9.20417L16.5663 6.09291C16.6959 5.92521 16.9623 5.9848 17.0081 6.19174L17.6724 9.19042C17.7061 9.34285 17.5935 9.4886 17.4374 9.49432L14.3681 9.60691C14.1563 9.61467 14.0315 9.37187 14.1612 9.20417Z" fill="white"/>
</svg>
