<svg width="12" height="12" viewBox="0 0 12 12" fill="none" xmlns="http://www.w3.org/2000/svg">
<path d="M6.00005 0.285721C6.39454 0.285721 6.71434 0.605517 6.71434 1.00001V5.28572H11.0001C11.3945 5.28572 11.7143 5.60552 11.7143 6.00001C11.7143 6.3945 11.3945 6.71429 11.0001 6.71429H6.71434V11C6.71434 11.3945 6.39454 11.7143 6.00005 11.7143C5.60556 11.7143 5.28577 11.3945 5.28577 11V6.71429H1.00005C0.605563 6.71429 0.285767 6.3945 0.285767 6.00001C0.285767 5.60552 0.605563 5.28572 1.00005 5.28572H5.28577V1.00001C5.28577 0.605517 5.60556 0.285721 6.00005 0.285721Z" fill="#2937D8"/>
</svg>
