<svg width="12" height="12" viewBox="0 0 12 12" fill="none" xmlns="http://www.w3.org/2000/svg">
<path d="M4.875 0.75H7.125C7.33211 0.75 7.5 0.917893 7.5 1.125V1.875H4.5V1.125C4.5 0.917893 4.66789 0.75 4.875 0.75ZM8.25 1.875V1.125C8.25 0.50368 7.74632 0 7.125 0H4.875C4.25368 0 3.75 0.50368 3.75 1.125V1.875H1.87924C1.87669 1.87497 1.87414 1.87497 1.87158 1.875H1.125C0.917893 1.875 0.75 2.04289 0.75 2.25C0.75 2.45711 0.917893 2.625 1.125 2.625H1.5288L2.16837 10.6196C2.23074 11.3992 2.88155 12 3.66359 12H8.33641C9.11845 12 9.76926 11.3992 9.83163 10.6196L10.4712 2.625H10.875C11.0821 2.625 11.25 2.45711 11.25 2.25C11.25 2.04289 11.0821 1.875 10.875 1.875H10.1284C10.1259 1.87497 10.1233 1.87497 10.1208 1.875H8.25ZM9.7188 2.625L9.08402 10.5598C9.05284 10.9496 8.72743 11.25 8.33641 11.25H3.66359C3.27257 11.25 2.94716 10.9496 2.91598 10.5598L2.2812 2.625H9.7188ZM4.10298 3.37565C4.30973 3.36349 4.48719 3.52123 4.49935 3.72798L4.87435 10.103C4.88651 10.3097 4.72877 10.4872 4.52202 10.4994C4.31527 10.5115 4.13781 10.3538 4.12565 10.147L3.75065 3.77202C3.73849 3.56527 3.89623 3.38781 4.10298 3.37565ZM7.89702 3.37565C8.10377 3.38781 8.26151 3.56527 8.24935 3.77202L7.87435 10.147C7.86219 10.3538 7.68473 10.5115 7.47798 10.4994C7.27123 10.4872 7.11349 10.3097 7.12565 10.103L7.50065 3.72798C7.51281 3.52123 7.69027 3.36349 7.89702 3.37565ZM6 3.375C6.20711 3.375 6.375 3.54289 6.375 3.75V10.125C6.375 10.3321 6.20711 10.5 6 10.5C5.79289 10.5 5.625 10.3321 5.625 10.125V3.75C5.625 3.54289 5.79289 3.375 6 3.375Z" fill="#E91818"/>
</svg>
